<svg width="365" height="388" viewBox="0 0 365 388" fill="none" xmlns="http://www.w3.org/2000/svg">
<path d="M347.909 222.091C347.909 313.444 273.853 387.5 182.5 387.5C91.147 387.5 17.0908 313.444 17.0908 222.091C17.0908 130.738 91.147 56.6818 182.5 56.6818C273.853 56.6818 347.909 130.738 347.909 222.091Z" fill="#E6E6E6" stroke="black"/>
<mask id="mask0_111_129" style="mask-type:luminance" maskUnits="userSpaceOnUse" x="16" y="56" width="333" height="332">
<path d="M347.909 222.091C347.909 313.444 273.853 387.5 182.5 387.5C91.147 387.5 17.0908 313.444 17.0908 222.091C17.0908 130.738 91.147 56.6818 182.5 56.6818C273.853 56.6818 347.909 130.738 347.909 222.091Z" fill="white" stroke="black"/>
</mask>
<g mask="url(#mask0_111_129)">
<path d="M17.0908 387.5V56.6818H347.909V387.5H17.0908Z" fill="#57EF97" stroke="black"/>
</g>
<mask id="mask1_111_129" style="mask-type:luminance" maskUnits="userSpaceOnUse" x="0" y="0" width="365" height="388">
<path d="M16.5909 222.091C16.5909 313.72 90.8709 388 182.5 388C274.129 388 348.409 313.72 348.409 222.091H365V0.878784H0V222.091H16.5909Z" fill="white"/>
</mask>
<g mask="url(#mask1_111_129)">
<mask id="mask2_111_129" style="mask-type:luminance" maskUnits="userSpaceOnUse" x="44" y="50" width="277" height="338">
<path d="M215.467 250.135L215.182 250.271V250.587V276.011V276.511H215.682H221.212C275.913 276.511 320.258 320.855 320.258 375.557V387.5H44.7424V375.557C44.7424 320.855 89.0866 276.511 143.788 276.511H149.318H149.818V276.011V250.587V250.271L149.533 250.135C125.854 238.887 108.834 215.898 105.995 188.693L105.954 188.304L105.568 188.25C97.7575 187.146 91.75 180.433 91.75 172.318V152.962C91.75 144.99 97.5486 138.37 105.158 137.094L105.576 137.024V136.601V128.076C105.576 85.5916 140.016 51.1515 182.5 51.1515C224.984 51.1515 259.424 85.5916 259.424 128.076V136.601V137.024L259.841 137.094C267.451 138.37 273.25 144.99 273.25 152.962V172.318C273.25 180.433 267.242 187.146 259.432 188.25L259.046 188.304L259.005 188.693C256.166 215.898 239.146 238.887 215.467 250.135Z" fill="white" stroke="black"/>
</mask>
<g mask="url(#mask2_111_129)">
<path d="M88.9849 383.352V76.0379H277.398V383.352H88.9849Z" fill="#FFCB46" stroke="black"/>
</g>
<path d="M107.604 284.176L107.898 284.048L107.904 283.727C108.085 274.18 112.693 267.563 120.246 262.964C127.712 258.417 138.052 255.851 149.814 254.452V280.061C149.814 298.649 164.434 313.743 182.5 313.743C200.566 313.743 215.186 298.649 215.186 280.061V254.452C226.948 255.851 237.288 258.417 244.754 262.964C252.307 267.563 256.915 274.18 257.096 283.727L257.102 284.048L257.396 284.176C291.892 299.199 316.11 334.408 316.11 375.458V387.402H48.8901V375.458C48.8901 334.408 73.1081 299.199 107.604 284.176Z" fill="black" stroke="black"/>
<mask id="mask3_111_129" style="mask-type:luminance" maskUnits="userSpaceOnUse" x="48" y="253" width="269" height="135">
<path d="M107.604 284.176L107.898 284.048L107.904 283.727C108.085 274.18 112.693 267.563 120.246 262.964C127.712 258.417 138.052 255.851 149.814 254.452V280.061C149.814 298.649 164.434 313.743 182.5 313.743C200.566 313.743 215.186 298.649 215.186 280.061V254.452C226.948 255.851 237.288 258.417 244.754 262.964C252.307 267.563 256.915 274.18 257.096 283.727L257.102 284.048L257.396 284.176C291.892 299.199 316.11 334.408 316.11 375.458V387.402H48.8901V375.458C48.8901 334.408 73.1081 299.199 107.604 284.176Z" fill="white" stroke="black"/>
</mask>
<g mask="url(#mask3_111_129)">
<path d="M5.97485 387.402V236.319H359.025V387.402H5.97485Z" fill="#8BF9F5" stroke="black"/>
</g>
<mask id="path-10-inside-1_111_129" fill="white">
<path fill-rule="evenodd" clip-rule="evenodd" d="M163.144 206.883C163.144 217.573 171.81 226.239 182.5 226.239C193.19 226.239 201.856 217.573 201.856 206.883"/>
</mask>
<path fill-rule="evenodd" clip-rule="evenodd" d="M163.144 206.883C163.144 217.573 171.81 226.239 182.5 226.239C193.19 226.239 201.856 217.573 201.856 206.883" fill="white"/>
<path d="M162.144 206.883C162.144 218.125 171.258 227.239 182.5 227.239V225.239C172.362 225.239 164.144 217.02 164.144 206.883H162.144ZM182.5 227.239C193.742 227.239 202.856 218.125 202.856 206.883H200.856C200.856 217.02 192.638 225.239 182.5 225.239V227.239Z" fill="black" mask="url(#path-10-inside-1_111_129)"/>
<path d="M170.548 199.677L182.189 154.867L193.831 199.677H170.548Z" fill="#FF81CC" stroke="black"/>
<path d="M154.348 154.345C154.348 158.088 153.437 161.452 151.99 163.864C150.537 166.286 148.599 167.67 146.553 167.67C144.507 167.67 142.569 166.286 141.116 163.864C139.669 161.452 138.758 158.088 138.758 154.345C138.758 150.602 139.669 147.238 141.116 144.826C142.569 142.404 144.507 141.019 146.553 141.019C148.599 141.019 150.537 142.404 151.99 144.826C153.437 147.238 154.348 150.602 154.348 154.345Z" fill="black" stroke="black"/>
<path d="M229.008 154.345C229.008 158.088 228.096 161.452 226.649 163.864C225.196 166.286 223.258 167.67 221.212 167.67C219.166 167.67 217.228 166.286 215.775 163.864C214.328 161.452 213.417 158.088 213.417 154.345C213.417 150.602 214.328 147.238 215.775 144.826C217.228 142.404 219.166 141.019 221.212 141.019C223.258 141.019 225.196 142.404 226.649 144.826C228.096 147.238 229.008 150.602 229.008 154.345Z" fill="black" stroke="black"/>
<path d="M141.803 123.25L141.803 123.25C145.344 123.083 149.423 123.537 153.195 124.688C156.972 125.84 160.399 127.678 162.682 130.246C162.746 130.317 162.758 130.374 162.758 130.41C162.759 130.451 162.744 130.503 162.703 130.558C162.619 130.667 162.436 130.764 162.186 130.707L162.186 130.707C159.739 130.144 156.21 129.994 152.264 130.138C148.308 130.282 143.896 130.724 139.667 131.361C135.439 131.999 131.381 132.835 128.134 133.772C126.511 134.24 125.081 134.736 123.93 135.249C122.963 135.68 122.157 136.138 121.6 136.627C121.663 133.033 124.545 129.838 128.563 127.433C132.704 124.956 137.876 123.431 141.803 123.25Z" fill="black" stroke="black"/>
<path d="M224.58 123.25L224.58 123.25C221.039 123.083 216.96 123.537 213.188 124.688C209.411 125.84 205.984 127.678 203.7 130.246C203.637 130.317 203.625 130.374 203.625 130.41C203.624 130.451 203.638 130.503 203.68 130.558C203.764 130.667 203.947 130.764 204.196 130.707L204.197 130.707C206.643 130.144 210.173 129.994 214.119 130.138C218.075 130.282 222.486 130.724 226.716 131.361C230.944 131.999 235.002 132.835 238.249 133.772C239.872 134.24 241.301 134.736 242.452 135.249C243.42 135.68 244.226 136.138 244.782 136.627C244.719 133.033 241.838 129.838 237.82 127.433C233.679 124.956 228.507 123.431 224.58 123.25Z" fill="black" stroke="black"/>
<mask id="mask4_111_129" style="mask-type:luminance" maskUnits="userSpaceOnUse" x="0" y="0" width="365" height="388">
<path d="M0.5 387.5V1.37878H364.5V387.5H0.5Z" fill="white" stroke="black"/>
</mask>
<g mask="url(#mask4_111_129)">
<path d="M182.5 196.798L182.267 196.675C177.643 194.234 172.035 192.814 166.686 192.347C161.332 191.879 156.292 192.372 152.799 193.706L152.799 193.706C150.848 194.451 148.943 195.542 146.966 196.721C146.708 196.875 146.448 197.031 146.187 197.187C144.462 198.221 142.676 199.292 140.788 200.199C136.415 202.3 131.451 203.545 125.167 201.592L125.167 201.592C125.095 201.57 125.027 201.59 124.98 201.634C124.934 201.676 124.924 201.723 124.938 201.771L124.938 201.772C125.829 204.696 128.793 207.239 132.092 209.089C135.382 210.935 138.837 211.997 140.52 212.063C148.23 212.363 155.21 209.55 162.04 206.497C162.687 206.207 163.334 205.915 163.98 205.623C170.107 202.857 176.172 200.119 182.467 199.694L182.5 199.692L182.534 199.694C188.829 200.119 194.894 202.857 201.02 205.623C201.667 205.915 202.313 206.207 202.961 206.497C209.791 209.55 216.771 212.363 224.481 212.063C226.164 211.997 229.619 210.935 232.909 209.089C236.208 207.239 239.172 204.696 240.063 201.772L182.5 196.798ZM182.5 196.798L182.734 196.675M182.5 196.798L182.734 196.675M182.734 196.675C187.358 194.234 192.966 192.814 198.315 192.347C203.669 191.879 208.709 192.372 212.202 193.706L212.38 193.239L212.202 193.706C214.153 194.451 216.058 195.542 218.035 196.721C218.293 196.875 218.553 197.031 218.814 197.187C220.539 198.221 222.325 199.292 224.213 200.199C228.586 202.3 233.55 203.545 239.834 201.592L239.834 201.592M182.734 196.675L239.834 201.592M239.834 201.592C239.906 201.57 239.974 201.59 240.021 201.634M239.834 201.592L240.021 201.634M240.021 201.634C240.067 201.676 240.078 201.723 240.063 201.772L240.021 201.634Z" fill="#28354B" stroke="black"/>
<mask id="mask5_111_129" style="mask-type:luminance" maskUnits="userSpaceOnUse" x="124" y="191" width="117" height="22">
<path d="M182.5 196.798L182.267 196.675C177.643 194.234 172.035 192.814 166.686 192.347C161.332 191.879 156.292 192.372 152.799 193.706L152.799 193.706C150.848 194.451 148.943 195.542 146.966 196.721C146.708 196.875 146.448 197.031 146.187 197.187C144.462 198.221 142.676 199.292 140.788 200.199C136.415 202.3 131.451 203.545 125.167 201.592L125.167 201.592C125.095 201.57 125.027 201.59 124.98 201.634C124.934 201.676 124.924 201.723 124.938 201.771L124.938 201.772C125.829 204.696 128.793 207.239 132.092 209.089C135.382 210.935 138.837 211.997 140.52 212.063C148.23 212.363 155.21 209.55 162.04 206.497C162.687 206.207 163.334 205.915 163.98 205.623C170.107 202.857 176.172 200.119 182.467 199.694L182.5 199.692L182.534 199.694C188.829 200.119 194.894 202.857 201.02 205.623C201.667 205.915 202.313 206.207 202.961 206.497C209.791 209.55 216.771 212.363 224.481 212.063C226.164 211.997 229.619 210.935 232.909 209.089C236.208 207.239 239.172 204.696 240.063 201.772L182.5 196.798ZM182.5 196.798L182.734 196.675M182.5 196.798L182.734 196.675M182.734 196.675C187.358 194.234 192.966 192.814 198.315 192.347C203.669 191.879 208.709 192.372 212.202 193.706L212.38 193.239L212.202 193.706C214.153 194.451 216.058 195.542 218.035 196.721C218.293 196.875 218.553 197.031 218.814 197.187C220.539 198.221 222.325 199.292 224.213 200.199C228.586 202.3 233.55 203.545 239.834 201.592L239.834 201.592M182.734 196.675L239.834 201.592M239.834 201.592C239.906 201.57 239.974 201.59 240.021 201.634M239.834 201.592L240.021 201.634M240.021 201.634C240.067 201.676 240.078 201.723 240.063 201.772L240.021 201.634Z" fill="white" stroke="black"/>
</mask>
<g mask="url(#mask5_111_129)">
<path d="M22.6213 437.273V100.924H386.621V437.273H22.6213Z" fill="black" stroke="black"/>
</g>
<path d="M124.146 86.188L124.139 86.1928L124.133 86.1979C120.682 88.7751 117.799 93.0907 115.422 98.086C113.04 103.091 111.143 108.83 109.691 114.309C108.237 119.789 107.225 125.022 106.616 129.022C106.311 131.021 106.107 132.717 105.999 133.984C105.944 134.617 105.914 135.149 105.907 135.56C105.903 135.861 105.909 136.139 105.943 136.351C105.739 136.984 105.33 137.256 105.046 137.278C104.817 137.297 104.401 137.156 104.189 136.295C103.698 129.176 103.72 107.799 113.618 88.0814C118.573 78.212 125.998 68.7653 137.068 61.7215C148.138 54.6782 162.883 50.0187 182.506 49.7689C202.127 49.5191 216.868 53.929 227.934 60.8767C239.002 67.825 246.426 77.332 251.381 87.3267C261.28 107.295 261.302 129.173 260.811 136.295C260.599 137.156 260.184 137.297 259.954 137.278C259.671 137.256 259.261 136.984 259.057 136.351C259.091 136.139 259.097 135.861 259.093 135.56C259.086 135.149 259.056 134.617 259.002 133.984C258.893 132.717 258.689 131.021 258.384 129.022C257.775 125.022 256.763 119.789 255.309 114.309C253.857 108.83 251.96 103.091 249.578 98.086C247.201 93.0907 244.318 88.7751 240.867 86.1979L240.861 86.1928L240.854 86.188C240.176 85.7167 239.171 85.2737 237.912 84.8542C236.645 84.4321 235.091 84.0237 233.294 83.6334C229.699 82.8525 225.107 82.1379 219.853 81.5314C209.342 80.3183 196.151 79.5344 182.933 79.5251C169.57 79.5156 156.177 80.29 145.493 81.5031C140.152 82.1096 135.48 82.8265 131.825 83.612C129.997 84.0047 128.417 84.416 127.13 84.8416C125.852 85.2644 124.831 85.7116 124.146 86.188Z" fill="#28354B" stroke="black"/>
<mask id="mask6_111_129" style="mask-type:luminance" maskUnits="userSpaceOnUse" x="103" y="49" width="159" height="89">
<path d="M124.146 86.188L124.139 86.1928L124.133 86.1979C120.682 88.7751 117.799 93.0907 115.422 98.086C113.04 103.091 111.143 108.83 109.691 114.309C108.237 119.789 107.225 125.022 106.616 129.022C106.311 131.021 106.107 132.717 105.999 133.984C105.944 134.617 105.914 135.149 105.907 135.56C105.903 135.861 105.909 136.139 105.943 136.351C105.739 136.984 105.33 137.256 105.046 137.278C104.817 137.297 104.401 137.156 104.189 136.295C103.698 129.176 103.72 107.799 113.618 88.0814C118.573 78.212 125.998 68.7653 137.068 61.7215C148.138 54.6782 162.883 50.0187 182.506 49.7689C202.127 49.5191 216.868 53.929 227.934 60.8767C239.002 67.825 246.426 77.332 251.381 87.3267C261.28 107.295 261.302 129.173 260.811 136.295C260.599 137.156 260.184 137.297 259.954 137.278C259.671 137.256 259.261 136.984 259.057 136.351C259.091 136.139 259.097 135.861 259.093 135.56C259.086 135.149 259.056 134.617 259.002 133.984C258.893 132.717 258.689 131.021 258.384 129.022C257.775 125.022 256.763 119.789 255.309 114.309C253.857 108.83 251.96 103.091 249.578 98.086C247.201 93.0907 244.318 88.7751 240.867 86.1979L240.861 86.1928L240.854 86.188C240.176 85.7167 239.171 85.2737 237.912 84.8542C236.645 84.4321 235.091 84.0237 233.294 83.6334C229.699 82.8525 225.107 82.1379 219.853 81.5314C209.342 80.3183 196.151 79.5344 182.933 79.5251C169.57 79.5156 156.177 80.29 145.493 81.5031C140.152 82.1096 135.48 82.8265 131.825 83.612C129.997 84.0047 128.417 84.416 127.13 84.8416C125.852 85.2644 124.831 85.7116 124.146 86.188Z" fill="white" stroke="black"/>
</mask>
<g mask="url(#mask6_111_129)">
<path d="M102.811 434.508V48.3864H466.811V434.508H102.811Z" fill="black" stroke="black"/>
</g>
</g>
</g>
</svg>
