<svg width="878" height="395" viewBox="0 0 878 395" fill="none" xmlns="http://www.w3.org/2000/svg">
<path d="M848 10.0205H106.355C89.7869 10.0205 76.3555 23.452 76.3555 40.0205V163.209L76.3555 203.371L76.3555 243.533V365C76.3555 381.569 89.7869 395 106.355 395H848C864.569 395 878 381.569 878 365V40.0205C878 23.452 864.569 10.0205 848 10.0205Z" fill="black"/>
<path d="M840.803 2H99.158C82.5895 2 69.158 15.4315 69.158 32V155.189L3 195.35L69.158 235.512V356.98C69.158 373.548 82.5895 386.98 99.158 386.98H840.803C857.371 386.98 870.803 373.548 870.803 356.98V32C870.803 15.4315 857.371 2 840.803 2Z" fill="white" stroke="black" stroke-width="2.5"/>
</svg>
