<svg width="919" height="825" viewBox="0 0 919 825" fill="none" xmlns="http://www.w3.org/2000/svg">
<path d="M917 608.366V823H2V608.366M917 608.366L882 618.822M917 608.366H882M917 608.366L882 597.778M2 608.366L35.8292 618.472M2 608.366H35.8292M2 608.366L35.8292 597.778M35.8292 618.472L459.5 745.039L882 618.822M35.8292 618.472V608.366M882 618.822V608.366M35.8292 608.366V597.778M35.8292 597.778V32C35.8292 15.4314 49.2607 2 65.8292 2H852C868.569 2 882 15.4315 882 32V597.778M882 608.366V597.778" stroke="black" stroke-width="3"/>
</svg>
