<svg width="44" height="44" viewBox="0 0 44 44" fill="none" xmlns="http://www.w3.org/2000/svg">
<path d="M10.3985 5.29375C7.83755 5.84375 5.81802 7.88906 5.28521 10.45C5.08755 11.3953 5.08755 32.6047 5.28521 33.55C5.76646 35.8875 7.39927 37.7094 9.74536 38.5258L10.5274 38.8008H22H33.4727L34.2891 38.5172C36.343 37.8039 37.7954 36.343 38.5258 34.2547L38.8008 33.4727V22.0859C38.8008 12.6328 38.7836 10.6219 38.6805 10.2352C38.0274 7.7 36.068 5.80938 33.55 5.28516C32.6391 5.09609 11.2665 5.10469 10.3985 5.29375ZM33.1032 7.82891C34.5641 8.13828 35.8532 9.42734 36.1711 10.8969C36.3086 11.5414 36.3086 32.4586 36.1711 33.1031C35.8532 34.5727 34.5641 35.8617 33.1032 36.1711C32.4586 36.3086 11.5329 36.3086 10.8969 36.1711C9.43599 35.8617 8.13833 34.5641 7.82896 33.1031C7.69146 32.4586 7.69146 11.5328 7.82896 10.8969C8.13833 9.46172 9.36724 8.19844 10.7852 7.85469C11.3696 7.70859 32.4243 7.69141 33.1032 7.82891Z" fill="black"/>
<path d="M30.1899 10.5531C28.0329 11.3266 27.8524 14.2656 29.8891 15.2711C30.5852 15.6148 31.4618 15.6148 32.1579 15.2711C33.0774 14.8156 33.5586 14.0336 33.5586 12.9766C33.5586 12.2461 33.3782 11.7562 32.9227 11.232C32.304 10.5359 31.0922 10.2266 30.1899 10.5531Z" fill="black"/>
<path d="M20.668 13.0625C18.829 13.3461 16.9727 14.3 15.6321 15.632C14.4719 16.8008 13.6555 18.2359 13.2259 19.9031C12.9509 20.9515 12.9423 23.0742 13.2173 24.0625C13.6899 25.807 14.4719 27.2078 15.6321 28.368C16.7923 29.5281 18.193 30.3101 19.9376 30.7828C20.9259 31.0578 23.0485 31.0492 24.0969 30.7742C27.4743 29.8976 29.8462 27.5172 30.7915 24.0625C31.0407 23.1258 31.0407 20.8742 30.7915 19.9375C30.3016 18.1672 29.5196 16.7836 28.3337 15.6062C27.1649 14.4375 25.7813 13.6555 24.1485 13.243C23.3149 13.0281 21.5102 12.9336 20.668 13.0625ZM23.2634 15.6922C24.5524 15.9586 25.6266 16.543 26.5462 17.4711C27.3884 18.3305 27.9384 19.2672 28.2477 20.4015C28.4454 21.1234 28.4454 22.8765 28.2477 23.5984C27.586 26.0047 25.6696 27.8094 23.2719 28.3078C18.8118 29.2273 14.7727 25.1969 15.6923 20.7281C16.4055 17.2562 19.8259 14.9789 23.2634 15.6922Z" fill="black"/>
</svg>
