<svg width="35" height="35" viewBox="0 0 35 35" fill="none" xmlns="http://www.w3.org/2000/svg">
<path d="M3.44432 0.951158C1.84002 1.24022 0.604282 2.33866 0.264633 3.78397C-0.378531 6.50838 1.67381 8.77752 4.60057 8.58963C6.50838 8.46678 7.86698 7.45506 8.35116 5.80018C8.49569 5.29432 8.50291 4.28983 8.35838 3.73338C8.02596 2.46151 7.03592 1.45702 5.72069 1.05956C5.25096 0.922252 3.95741 0.857213 3.44432 0.951158Z" fill="black"/>
<path d="M25.1096 11.249C24.4809 11.3646 23.9822 11.5236 23.3174 11.8271C22.2479 12.3186 20.7664 13.4604 19.9932 14.3853L19.6318 14.8189L19.5957 13.2508L19.5596 11.6826L15.8596 11.6609L12.1523 11.6465V22.8477V34.0488L15.8523 34.0344L19.5596 34.0127L19.5957 27.0752L19.6318 20.1377L19.827 19.6896C20.2389 18.7141 21.0266 17.8396 21.8359 17.4277C23.2668 16.7051 25.1385 16.9508 26.1502 17.9842C26.6127 18.4539 26.9813 19.1982 27.198 20.0799C27.3498 20.7014 27.357 20.8387 27.3787 27.3787L27.4076 34.0488H31.1293H34.851L34.8221 26.8367C34.7932 19.1115 34.7932 19.0682 34.4102 17.5723C33.4852 13.9518 31.1727 11.7621 27.7473 11.2562C26.8439 11.1189 25.8322 11.1189 25.1096 11.249Z" fill="black"/>
<path d="M0.589844 22.8477V34.0488H4.31152H8.0332V22.8477V11.6465H4.31152H0.589844V22.8477Z" fill="black"/>
</svg>
