<svg width="43" height="33" viewBox="0 0 43 33" fill="none" xmlns="http://www.w3.org/2000/svg">
<path opacity="0.96" fill-rule="evenodd" clip-rule="evenodd" d="M42.958 3.10449C42.958 12.0068 42.958 20.9092 42.958 29.8115C42.5254 31.2099 41.6016 32.1198 40.1865 32.541C27.7008 32.597 15.2152 32.597 2.72949 32.541C1.31444 32.1198 0.390611 31.2099 -0.0419922 29.8115C-0.0419922 20.9092 -0.0419922 12.0068 -0.0419922 3.10449C0.390611 1.70613 1.31444 0.796301 2.72949 0.375002C15.2152 0.31901 27.7008 0.31901 40.1865 0.375002C41.6016 0.796301 42.5254 1.70613 42.958 3.10449ZM3.31738 2.26465C15.3971 2.16672 27.4909 2.15272 39.5986 2.22266C33.879 7.57876 28.0841 12.8417 22.2139 18.0117C21.4783 18.304 20.8065 18.192 20.1982 17.6758C14.557 12.5524 8.93006 7.41533 3.31738 2.26465ZM1.80566 3.6084C1.89402 3.59589 1.978 3.60983 2.05762 3.65039C6.69153 7.8785 11.3107 12.1197 15.915 16.374C11.1917 20.621 6.51652 24.9323 1.88965 29.3076C1.80566 20.7414 1.77767 12.175 1.80566 3.6084ZM40.8584 3.6084C40.9424 3.6084 41.0264 3.6084 41.1104 3.6084C41.1383 12.175 41.1104 20.7414 41.0264 29.3076C36.3995 24.9323 31.7243 20.621 27.001 16.374C31.6218 12.1169 36.2409 7.86179 40.8584 3.6084ZM17.3428 17.7178C18.0797 18.3 18.8075 18.9018 19.5264 19.5234C20.8141 20.2513 22.1019 20.2513 23.3896 19.5234C24.0864 18.9669 24.7583 18.379 25.4053 17.7598C25.5235 17.7333 25.6355 17.7613 25.7412 17.8438C30.464 22.0342 35.1112 26.3174 39.6826 30.6934C27.5328 30.7494 15.3832 30.7494 3.2334 30.6934C7.85218 26.2557 12.5553 21.9305 17.3428 17.7178Z" fill="black"/>
</svg>
