<svg width="185" height="184" viewBox="0 0 185 184" fill="none" xmlns="http://www.w3.org/2000/svg">
<path d="M119.357 13.5555L121.988 14.7267C121.506 15.8084 122.162 16.6958 125.495 18.1795C128.257 19.4093 129.227 19.4732 129.585 18.6693C129.962 17.8215 129.443 17.415 126.196 15.7771C121.829 13.5878 120.373 12.0988 121.394 9.80386C122.396 7.55276 125.01 7.85812 128.839 9.56297C132.698 11.2808 134.608 13.2867 133.482 15.8156L130.851 14.6443C131.352 13.5187 130.35 12.74 127.617 11.5231C125.029 10.3714 124.305 10.3466 123.967 11.1067C123.615 11.896 124.164 12.3155 127.068 13.8184C131.005 15.8336 133.407 17.1655 132.255 19.7528C131.038 22.4863 128.204 21.89 124.418 20.2047C120.223 18.3372 118.042 16.5082 119.357 13.5555Z" fill="black"/>
<path d="M133.843 18.2174C135.937 15.1529 138.828 14.6674 142.896 17.4487C146.581 19.9681 147.473 22.6324 145.887 25.4632L143.47 23.8107C144.265 22.1645 143.513 20.7977 141.532 19.4432C139.115 17.7907 137.511 17.954 136.22 19.8428C134.92 21.7449 135.354 23.3211 137.758 24.9646C139.726 26.31 141.295 26.5103 142.549 25.158L144.966 26.8105C142.895 29.3294 140.08 29.4785 136.395 26.9591C132.327 24.1778 131.739 21.2951 133.843 18.2174Z" fill="black"/>
<path d="M157.203 35.5538C155.923 36.853 154.318 37.1588 152.832 36.5247L151.966 40.344L149.55 37.9628L150.362 34.5626L147.058 31.3054L144.958 33.4364L142.907 31.4147L150.768 23.4375L157.035 29.6149C158.847 31.4007 158.955 33.776 157.203 35.5538ZM151.123 27.18L148.754 29.5846L152.4 33.1787C153.015 33.7852 153.973 34.7287 155.152 33.5321C156.342 32.3241 155.385 31.3806 154.77 30.7741L151.123 27.18Z" fill="black"/>
<path d="M156.249 46.5249C153.394 42.5081 153.839 39.6 156.878 37.44C159.903 35.2894 162.783 35.8335 165.638 39.8504C168.484 43.8542 168.047 46.7753 165.035 48.9167C162.009 51.0674 159.094 50.5287 156.249 46.5249ZM158.218 45.1251C159.951 47.5639 161.501 47.8948 163.366 46.5692C165.218 45.2528 165.411 43.702 163.669 41.2502C161.926 38.7983 160.411 38.4619 158.546 39.7875C156.669 41.1224 156.484 42.6863 158.218 45.1251Z" fill="black"/>
<path d="M164.033 54.2556L167.809 62.0271L165.636 63.083L160.602 52.7211L170.675 47.8262L171.934 50.4167L164.033 54.2556Z" fill="black"/>
<path d="M168.832 65.3816L171.406 73.6294L169.1 74.3492L165.668 63.3521L176.36 60.0154L177.218 62.7647L168.832 65.3816Z" fill="black"/>
<path d="M172.303 81.4864L172.598 84.2064L170.466 84.4374L170.172 81.7174L172.303 81.4864Z" fill="black"/>
<path d="M25.6165 42.0684L27.5311 39.9169C28.4155 40.7041 29.4601 40.3487 31.8852 37.6235C33.8956 35.3644 34.2509 34.4598 33.5935 33.8747C32.9003 33.2577 32.3553 33.6294 29.8094 36.2256C26.3979 39.7222 24.5372 40.6579 22.6608 38.9878C20.8202 37.3496 21.9046 34.9518 24.6913 31.8202C27.4994 28.6648 29.9901 27.4544 32.0577 29.2948L30.1431 31.4462C29.2228 30.6271 28.1767 31.3453 26.1877 33.5805C24.305 35.6961 24.0615 36.3789 24.6829 36.9321C25.3283 37.5065 25.8946 37.1109 28.2079 34.8002C31.3228 31.6609 33.321 29.7765 35.4364 31.6594C37.6713 33.6487 36.2428 36.1685 33.488 39.2642C30.4353 42.6946 28.0308 44.2172 25.6165 42.0684Z" fill="black"/>
<path d="M34.6921 29.4595C32.4113 26.5309 32.8289 23.6298 36.7166 20.6015C40.2383 17.8583 43.0475 17.8198 45.2606 20.1928L42.9507 21.9921C41.6252 20.7328 40.0945 21.0328 38.2011 22.5076C35.8912 24.3069 35.5583 25.8845 36.9641 27.6896C38.3798 29.5074 40.0132 29.5736 42.3105 27.7841C44.1913 26.3191 44.8597 24.8858 43.9535 23.2796L46.2634 21.4803C48.0319 24.2198 47.3167 26.9471 43.795 29.6903C39.9073 32.7186 36.9828 32.4007 34.6921 29.4595Z" fill="black"/>
<path d="M57.8917 12.7084C58.743 14.3215 58.5496 15.9434 57.4958 17.169L60.8744 19.1488L57.8746 20.7322L54.8793 18.93L50.7758 21.0959L52.1722 23.742L49.6252 25.0864L44.3979 15.1811L52.1804 11.0733C54.4302 9.8858 56.7268 10.5009 57.8917 12.7084ZM48.0725 15.9734L49.6482 18.9592L54.1762 16.5692C54.9402 16.1659 56.1288 15.5385 55.3447 14.0527C54.5532 12.5528 53.3646 13.1802 52.6005 13.5835L48.0725 15.9734Z" fill="black"/>
<path d="M68.3802 16.8197C63.6816 18.3057 61.0504 16.9898 59.9265 13.4352C58.8074 9.89595 60.2085 7.32166 64.9072 5.83574C69.5906 4.35464 72.2369 5.6657 73.3512 9.18974C74.4703 12.729 73.0636 15.3386 68.3802 16.8197ZM67.6518 14.5162C70.5046 13.614 71.295 12.2397 70.6053 10.0581C69.9203 7.89184 68.5035 7.23234 65.6355 8.13933C62.7675 9.04632 61.9827 10.3853 62.6725 12.5668C63.3671 14.7636 64.7991 15.4183 67.6518 14.5162Z" fill="black"/>
<path d="M78.2633 11.7628L86.8203 10.5683L87.1543 12.9611L75.7449 14.5537L74.1968 3.46121L77.0492 3.06307L78.2633 11.7628Z" fill="black"/>
<path d="M90.4729 10.6246L99.1124 10.7247L99.0844 13.1405L87.5652 13.0071L87.6948 1.80784L90.5746 1.84119L90.4729 10.6246Z" fill="black"/>
<path d="M106.685 12.2337L109.365 12.7874L108.931 14.887L106.252 14.3333L106.685 12.2337Z" fill="black"/>
<path d="M24.1473 139.73L22.6825 137.25C23.7019 136.648 23.682 135.544 21.8267 132.403C20.2887 129.8 19.5356 129.185 18.778 129.633C17.979 130.105 18.1667 130.737 19.8624 133.954C22.1514 138.27 22.4749 140.327 20.3121 141.605C18.1907 142.858 16.2381 141.094 14.1061 137.485C11.9578 133.848 11.565 131.107 13.9482 129.699L15.4129 132.179C14.3522 132.805 14.717 134.021 16.2387 136.597C17.6791 139.035 18.255 139.475 18.9713 139.052C19.7152 138.613 19.5112 137.953 18.0165 135.045C15.9772 131.12 14.7923 128.643 17.2306 127.202C19.8066 125.68 21.7704 127.809 23.878 131.377C26.2134 135.331 26.9299 138.086 24.1473 139.73Z" fill="black"/>
<path d="M14.9587 127.291C11.4736 128.569 8.83884 127.286 7.14243 122.659C5.60574 118.468 6.42696 115.781 9.36222 114.398L10.3702 117.147C8.76632 118.025 8.58455 119.574 9.41072 121.828C10.4187 124.577 11.8192 125.375 13.9673 124.587C16.1304 123.794 16.6923 122.259 15.6898 119.525C14.8692 117.287 13.7085 116.213 11.9024 116.585L10.8944 113.836C14.043 112.988 16.4214 114.502 17.9581 118.693C19.6545 123.32 18.4588 126.008 14.9587 127.291Z" fill="black"/>
<path d="M6.12502 99.9507C7.92173 99.6364 9.40552 100.319 10.2478 101.698L13.1704 99.0917L13.7548 102.433L11.1191 104.73L11.9185 109.3L14.8658 108.785L15.362 111.622L4.32952 113.552L2.81333 104.883C2.37501 102.377 3.66636 100.381 6.12502 99.9507ZM6.21317 110.298L9.53866 109.717L8.65652 104.673C8.50766 103.822 8.27609 102.498 6.62123 102.788C4.9506 103.08 5.18216 104.404 5.33102 105.255L6.21317 110.298Z" fill="black"/>
<path d="M13.2898 91.015C13.2517 95.9428 11.1875 98.039 7.4596 98.0102C3.74771 97.9815 1.73208 95.8539 1.77012 90.926C1.80804 86.0142 3.87241 83.902 7.5683 83.9306C11.2802 83.9592 13.3277 86.1031 13.2898 91.015ZM10.8738 90.9963C10.8969 88.0044 9.83399 86.8282 7.54606 86.8105C5.27413 86.793 4.20927 87.9368 4.18605 90.9447C4.16283 93.9526 5.1939 95.1126 7.48184 95.1303C9.78577 95.148 10.8508 93.9882 10.8738 90.9963Z" fill="black"/>
<path d="M11.5218 80.1364L13.0104 71.6256L15.3903 72.0419L13.4054 83.3896L2.37299 81.4596L2.8692 78.6227L11.5218 80.1364Z" fill="black"/>
<path d="M14.0968 68.4965L16.8255 60.2988L19.1178 61.0619L15.4795 71.9923L4.85293 68.4544L5.76252 65.7218L14.0968 68.4965Z" fill="black"/>
<path d="M20.6032 53.5514L21.9511 51.1704L23.8168 52.2268L22.4689 54.6077L20.6032 53.5514Z" fill="black"/>
<path d="M116.811 171.103L114.002 171.74C113.74 170.585 112.684 170.267 109.126 171.073C106.177 171.741 105.362 172.27 105.556 173.129C105.761 174.034 106.421 174.048 110.002 173.417C114.811 172.557 116.868 172.878 117.423 175.328C117.968 177.731 115.691 179.051 111.603 179.978C107.483 180.911 104.753 180.447 104.142 177.747L106.951 177.111C107.223 178.313 108.491 178.337 111.409 177.675C114.171 177.05 114.767 176.636 114.583 175.824C114.392 174.982 113.701 174.974 110.476 175.508C106.116 176.25 103.394 176.621 102.769 173.859C102.107 170.941 104.735 169.722 108.777 168.806C113.255 167.791 116.097 167.951 116.811 171.103Z" fill="black"/>
<path d="M102.078 176.026C102.236 179.735 100.212 181.855 95.2882 182.064C90.8282 182.253 88.5183 180.654 88.0934 177.437L91.0188 177.313C91.3672 179.108 92.7879 179.752 95.1857 179.65C98.1111 179.526 99.2978 178.435 99.2007 176.149C99.103 173.847 97.8113 172.845 94.9019 172.968C92.52 173.069 91.1439 173.848 90.9495 175.682L88.0241 175.807C88.1741 172.549 90.3394 170.744 94.7994 170.554C99.7229 170.345 101.92 172.302 102.078 176.026Z" fill="black"/>
<path d="M72.9901 176.045C73.2422 174.238 74.3471 173.035 75.9185 172.657L74.3343 169.076L77.6937 169.545L79.0708 172.758L83.6663 173.399L84.0798 170.436L86.9322 170.834L85.3841 181.927L76.6686 180.71C74.149 180.358 72.6451 178.517 72.9901 176.045ZM82.8657 179.136L83.3323 175.792L78.2615 175.084C77.4058 174.965 76.0747 174.779 75.8425 176.443C75.608 178.123 76.9391 178.308 77.7948 178.428L82.8657 179.136Z" fill="black"/>
<path d="M67.0511 166.577C71.7326 168.116 73.0995 170.721 71.9354 174.263C70.7763 177.789 68.1355 179.06 63.454 177.521C58.7876 175.987 57.4056 173.377 58.5596 169.865C59.7187 166.339 62.3848 165.043 67.0511 166.577ZM66.2967 168.872C63.4543 167.938 62.01 168.591 61.2956 170.765C60.5862 172.923 61.3508 174.286 64.2084 175.226C67.0659 176.165 68.485 175.537 69.1995 173.363C69.9189 171.174 69.139 169.806 66.2967 168.872Z" fill="black"/>
<path d="M56.2436 164.955L48.5878 160.95L49.7075 158.809L59.9153 164.149L54.7246 174.074L52.1727 172.739L56.2436 164.955Z" fill="black"/>
<path d="M45.8186 158.849L38.8504 153.741L40.2787 151.792L49.5696 158.603L42.9485 167.636L40.6258 165.934L45.8186 158.849Z" fill="black"/>
<path d="M33.4689 147.945L31.6132 145.934L33.1885 144.48L35.0442 146.49L33.4689 147.945Z" fill="black"/>
<path d="M174.921 93.5698L174.633 96.4354C173.454 96.3169 172.817 97.2176 172.452 100.847C172.149 103.856 172.393 104.797 173.268 104.885C174.191 104.978 174.415 104.357 174.953 100.761C175.664 95.9281 176.622 94.0787 179.122 94.3301C181.573 94.5767 182.102 97.1546 181.683 101.326C181.26 105.528 179.953 107.97 177.199 107.693L177.487 104.827C178.713 104.951 179.139 103.755 179.438 100.778C179.721 97.9604 179.518 97.2645 178.69 97.1812C177.831 97.0948 177.604 97.7474 177.087 100.976C176.406 105.346 175.893 108.044 173.075 107.76C170.098 107.461 169.777 104.582 170.192 100.459C170.651 95.8901 171.705 93.2463 174.921 93.5698Z" fill="black"/>
<path d="M174.942 109.131C178.506 110.169 179.866 112.766 178.487 117.497C177.238 121.782 174.983 123.458 171.799 122.831L172.619 120.019C174.431 120.264 175.496 119.125 176.167 116.821C176.986 114.01 176.333 112.536 174.136 111.896C171.924 111.251 170.561 112.153 169.746 114.949C169.079 117.238 169.377 118.791 171.052 119.563L170.233 122.374C167.195 121.188 166.178 118.559 167.427 114.273C168.806 109.542 171.363 108.087 174.942 109.131Z" fill="black"/>
<path d="M165.772 136.494C164.14 135.679 163.353 134.248 163.495 132.638L159.596 132.996L161.112 129.962L164.597 129.682L166.67 125.531L163.994 124.194L165.281 121.617L175.3 126.624L171.367 134.496C170.23 136.772 168.005 137.61 165.772 136.494ZM171.851 128.12L168.832 126.611L166.543 131.191C166.157 131.964 165.556 133.167 167.059 133.918C168.576 134.676 169.177 133.473 169.563 132.701L171.851 128.12Z" fill="black"/>
<path d="M154.936 139.104C157.878 135.151 160.781 134.679 163.772 136.905C166.75 139.122 167.119 142.03 164.176 145.983C161.244 149.923 158.33 150.408 155.366 148.201C152.388 145.984 152.003 143.045 154.936 139.104ZM156.874 140.547C155.087 142.947 155.25 144.524 157.085 145.89C158.908 147.247 160.443 146.953 162.238 144.54C164.034 142.127 163.888 140.582 162.052 139.216C160.204 137.84 158.66 138.147 156.874 140.547Z" fill="black"/>
<path d="M149.98 148.859L143.761 154.857L142.084 153.118L150.376 145.121L158.15 153.183L156.077 155.183L149.98 148.859Z" fill="black"/>
<path d="M140.887 156.848L133.845 161.854L132.445 159.885L141.834 153.21L148.323 162.34L145.975 164.008L140.887 156.848Z" fill="black"/>
<path d="M126.646 165.138L124.155 166.269L123.269 164.317L125.76 163.186L126.646 165.138Z" fill="black"/>
</svg>
